<svg xmlns="http://www.w3.org/2000/svg" xmlns:xlink="http://www.w3.org/1999/xlink" width="500" zoomAndPan="magnify" viewBox="0 0 375 374.999991" height="500" preserveAspectRatio="xMidYMid meet" version="1.0"><defs><g/><clipPath id="2b93114d3d"><path d="M 159.929688 127.078125 L 363.304688 127.078125 L 363.304688 259.132812 L 159.929688 259.132812 Z M 159.929688 127.078125 " clip-rule="nonzero"/></clipPath></defs><g clip-path="url(#2b93114d3d)"><path fill="#ff2e7b" d="M 159.929688 127.078125 L 363.175781 127.078125 L 363.175781 259.132812 L 159.929688 259.132812 Z M 159.929688 127.078125 " fill-opacity="1" fill-rule="nonzero"/></g><g fill="#ff2e7b" fill-opacity="1"><g transform="translate(9.148367, 169.687892)"><g><path d="M 18.609375 -49.3125 C 19.234375 -49.457031 19.414062 -49.816406 19.15625 -50.390625 C 18.15625 -52.535156 16.5 -53.957031 14.1875 -54.65625 C 12.46875 -55.082031 10.566406 -54.9375 8.484375 -54.21875 C 6.410156 -53.5 4.753906 -52.394531 3.515625 -50.90625 C 3.441406 -50.78125 3.367188 -50.648438 3.296875 -50.515625 C 3.296875 -50.515625 3.285156 -50.515625 3.265625 -50.515625 C 2.804688 -49.597656 3.078125 -48.9375 4.078125 -48.53125 C 4.773438 -48.3125 5.453125 -48.175781 6.109375 -48.125 C 6.765625 -48.082031 7.320312 -48.0625 7.78125 -48.0625 C 10.15625 -48.113281 12.316406 -48.304688 14.265625 -48.640625 C 14.660156 -48.691406 15.050781 -48.742188 15.4375 -48.796875 C 16.488281 -48.910156 17.546875 -49.082031 18.609375 -49.3125 Z M 31.796875 -10.71875 C 35.140625 -11.101562 38.492188 -11.390625 41.859375 -11.578125 C 42.691406 -11.609375 43.519531 -11.597656 44.34375 -11.546875 C 44.425781 -11.515625 44.515625 -11.441406 44.609375 -11.328125 C 44.710938 -11.210938 44.785156 -11.097656 44.828125 -10.984375 C 44.828125 -10.898438 44.796875 -10.800781 44.734375 -10.6875 C 44.679688 -10.570312 44.609375 -10.472656 44.515625 -10.390625 C 44.367188 -10.273438 44.203125 -10.191406 44.015625 -10.140625 C 43.835938 -10.097656 43.644531 -10.078125 43.4375 -10.078125 L 43.21875 -10.078125 C 43.03125 -10.023438 42.832031 -10 42.625 -10 L 42.546875 -10 C 40.648438 -9.882812 38.757812 -9.726562 36.875 -9.53125 C 36.15625 -9.46875 35.441406 -9.394531 34.734375 -9.3125 C 31.867188 -8.9375 29.003906 -8.519531 26.140625 -8.0625 C 25.421875 -7.976562 24.894531 -7.878906 24.5625 -7.765625 C 24.226562 -7.648438 24.019531 -7.429688 23.9375 -7.109375 C 23.851562 -6.796875 23.78125 -6.296875 23.71875 -5.609375 L 23.71875 -5.53125 C 23 2.800781 22.050781 11.097656 20.875 19.359375 C 20.757812 20.128906 20.664062 20.882812 20.59375 21.625 L 20.234375 24.046875 C 20.210938 24.328125 20.15625 24.601562 20.0625 24.875 C 19.976562 25.144531 19.832031 25.394531 19.625 25.625 C 19.488281 25.769531 19.332031 25.867188 19.15625 25.921875 C 18.988281 26.015625 18.789062 26.015625 18.5625 25.921875 C 18.507812 25.960938 18.4375 25.992188 18.34375 26.015625 C 18.144531 26.097656 17.929688 26.085938 17.703125 25.984375 C 17.523438 25.890625 17.414062 25.765625 17.375 25.609375 C 17.34375 25.453125 17.335938 25.289062 17.359375 25.125 C 17.441406 24.40625 17.53125 23.703125 17.625 23.015625 L 17.96875 20.4375 C 18.476562 16.28125 18.914062 12.125 19.28125 7.96875 C 19.65625 3.8125 19.988281 -0.351562 20.28125 -4.53125 C 20.3125 -4.675781 20.328125 -4.820312 20.328125 -4.96875 C 20.378906 -5.289062 20.40625 -5.632812 20.40625 -6 C 20.382812 -6.3125 20.253906 -6.65625 20.015625 -7.03125 C 19.617188 -6.9375 19.203125 -6.863281 18.765625 -6.8125 C 17.191406 -6.550781 15.617188 -6.265625 14.046875 -5.953125 C 12.703125 -5.691406 11.375 -5.394531 10.0625 -5.0625 C 9.394531 -4.894531 8.71875 -4.71875 8.03125 -4.53125 C 7.8125 -4.476562 7.597656 -4.46875 7.390625 -4.5 L 7.234375 -4.453125 C 6.992188 -4.398438 6.757812 -4.390625 6.53125 -4.421875 C 6.445312 -4.421875 6.367188 -4.445312 6.296875 -4.5 C 6.222656 -4.5625 6.175781 -4.617188 6.15625 -4.671875 C 6.113281 -4.722656 6.085938 -4.789062 6.078125 -4.875 C 6.066406 -4.96875 6.070312 -5.054688 6.09375 -5.140625 C 6.1875 -5.398438 6.332031 -5.59375 6.53125 -5.71875 C 6.738281 -5.851562 6.953125 -5.957031 7.171875 -6.03125 C 8.929688 -6.789062 10.753906 -7.335938 12.640625 -7.671875 C 13.429688 -7.816406 14.234375 -7.972656 15.046875 -8.140625 L 19.15625 -8.921875 C 19.820312 -9.046875 20.234375 -9.191406 20.390625 -9.359375 C 20.546875 -9.523438 20.625 -9.894531 20.625 -10.46875 C 20.71875 -12.664062 20.816406 -14.875 20.921875 -17.09375 C 21.097656 -20.320312 21.234375 -23.5625 21.328125 -26.8125 C 21.429688 -30.070312 21.4375 -33.335938 21.34375 -36.609375 C 21.269531 -38.691406 21.160156 -40.78125 21.015625 -42.875 C 20.992188 -43.09375 20.984375 -43.320312 20.984375 -43.5625 C 20.910156 -44.25 20.804688 -44.914062 20.671875 -45.5625 C 20.492188 -46.601562 20.273438 -47.222656 20.015625 -47.421875 C 19.878906 -47.472656 19.679688 -47.5 19.421875 -47.5 L 18.90625 -47.421875 C 16.988281 -47.085938 15.066406 -46.800781 13.140625 -46.5625 C 12.691406 -46.46875 12.238281 -46.410156 11.78125 -46.390625 C 10.03125 -46.191406 8.265625 -46.09375 6.484375 -46.09375 C 5.222656 -46.070312 3.992188 -46.226562 2.796875 -46.5625 C 2.316406 -46.707031 1.859375 -46.910156 1.421875 -47.171875 C 0.472656 -47.796875 0.1875 -48.679688 0.5625 -49.828125 C 0.851562 -50.679688 1.320312 -51.429688 1.96875 -52.078125 C 3.570312 -53.585938 5.335938 -54.769531 7.265625 -55.625 C 8.867188 -56.3125 10.601562 -56.742188 12.46875 -56.921875 C 13.0625 -56.984375 13.675781 -57.023438 14.3125 -57.046875 C 17.945312 -57.097656 20.695312 -55.492188 22.5625 -52.234375 L 22.8125 -51.71875 C 22.875 -51.570312 22.945312 -51.441406 23.03125 -51.328125 C 23.289062 -50.785156 23.519531 -50.472656 23.71875 -50.390625 C 23.75 -50.367188 23.78125 -50.359375 23.8125 -50.359375 C 23.832031 -50.378906 23.867188 -50.390625 23.921875 -50.390625 C 24.734375 -50.554688 25.539062 -50.738281 26.34375 -50.9375 C 29.457031 -51.65625 32.578125 -52.429688 35.703125 -53.265625 C 39.710938 -54.378906 43.738281 -55.523438 47.78125 -56.703125 L 54.65625 -58.671875 C 55.601562 -58.929688 56.566406 -59.132812 57.546875 -59.28125 C 57.617188 -59.300781 57.6875 -59.300781 57.75 -59.28125 L 58.359375 -59.375 C 58.460938 -59.40625 58.578125 -59.382812 58.703125 -59.3125 C 58.835938 -59.238281 58.9375 -59.15625 59 -59.0625 C 59.101562 -58.894531 59.128906 -58.738281 59.078125 -58.59375 C 59.023438 -58.445312 58.929688 -58.332031 58.796875 -58.25 C 58.296875 -57.957031 57.773438 -57.710938 57.234375 -57.515625 C 55.796875 -57.085938 54.378906 -56.671875 52.984375 -56.265625 C 50.316406 -55.523438 47.648438 -54.753906 44.984375 -53.953125 C 40.179688 -52.492188 35.332031 -51.148438 30.4375 -49.921875 C 29.96875 -49.804688 29.515625 -49.703125 29.078125 -49.609375 L 25.140625 -48.671875 C 24.710938 -48.554688 24.4375 -48.421875 24.3125 -48.265625 C 24.195312 -48.109375 24.171875 -47.84375 24.234375 -47.46875 C 24.804688 -44.09375 25.125 -40.695312 25.1875 -37.28125 C 25.25 -33.875 25.207031 -30.476562 25.0625 -27.09375 C 24.875 -21.769531 24.566406 -16.46875 24.140625 -11.1875 C 24.140625 -10.945312 24.160156 -10.707031 24.203125 -10.46875 C 24.222656 -10.09375 24.390625 -9.890625 24.703125 -9.859375 C 24.796875 -9.859375 24.882812 -9.875 24.96875 -9.90625 L 25.484375 -10 C 27.597656 -10.289062 29.703125 -10.53125 31.796875 -10.71875 Z M 31.796875 -10.71875 "/></g></g></g><g fill="#ff2e7b" fill-opacity="1"><g transform="translate(52.581622, 169.687892)"><g><path d="M 28.875 -11.296875 C 29.101562 -11.609375 29.347656 -11.832031 29.609375 -11.96875 C 29.867188 -12.113281 30.023438 -12.113281 30.078125 -11.96875 C 30.128906 -11.832031 29.988281 -11.488281 29.65625 -10.9375 C 28.882812 -9.789062 27.753906 -8.703125 26.265625 -7.671875 C 24.773438 -6.648438 23.125 -5.773438 21.3125 -5.046875 C 19.507812 -4.316406 17.75 -3.832031 16.03125 -3.59375 C 14.3125 -3.363281 12.859375 -3.476562 11.671875 -3.9375 C 10.484375 -4.394531 9.742188 -5.296875 9.453125 -6.640625 C 8.453125 -5.015625 7.265625 -3.742188 5.890625 -2.828125 C 4.515625 -1.910156 3.207031 -1.519531 1.96875 -1.65625 C 0.5625 -1.851562 -0.375 -2.378906 -0.84375 -3.234375 C -1.3125 -4.097656 -1.46875 -5.085938 -1.3125 -6.203125 C -1.15625 -7.328125 -0.816406 -8.390625 -0.296875 -9.390625 C 0.0976562 -10.160156 0.648438 -10.878906 1.359375 -11.546875 C 2.078125 -12.210938 2.828125 -12.726562 3.609375 -13.09375 C 4.585938 -13.582031 5.566406 -13.800781 6.546875 -13.75 C 7.535156 -13.707031 8.585938 -13.390625 9.703125 -12.796875 C 9.703125 -12.796875 9.71875 -12.820312 9.75 -12.875 C 9.75 -12.988281 9.769531 -13.125 9.8125 -13.28125 C 9.863281 -13.4375 9.957031 -13.570312 10.09375 -13.6875 C 10.289062 -13.832031 10.539062 -13.945312 10.84375 -14.03125 C 11.15625 -14.113281 11.453125 -14.128906 11.734375 -14.078125 C 12.191406 -13.992188 12.472656 -13.765625 12.578125 -13.390625 C 12.691406 -13.015625 12.710938 -12.601562 12.640625 -12.15625 C 12.578125 -11.71875 12.503906 -11.34375 12.421875 -11.03125 C 12.398438 -10.96875 12.390625 -10.910156 12.390625 -10.859375 C 11.921875 -8.972656 12.085938 -7.648438 12.890625 -6.890625 C 13.703125 -6.128906 14.867188 -5.773438 16.390625 -5.828125 C 17.921875 -5.890625 19.546875 -6.210938 21.265625 -6.796875 C 22.984375 -7.378906 24.546875 -8.078125 25.953125 -8.890625 C 27.359375 -9.710938 28.332031 -10.515625 28.875 -11.296875 Z M 2.546875 -4.203125 C 3.140625 -3.796875 3.78125 -3.835938 4.46875 -4.328125 C 5.164062 -4.816406 5.84375 -5.519531 6.5 -6.4375 C 7.15625 -7.351562 7.695312 -8.265625 8.125 -9.171875 C 8.550781 -10.085938 8.789062 -10.78125 8.84375 -11.25 C 7.476562 -11.988281 6.304688 -12.117188 5.328125 -11.640625 C 4.359375 -11.171875 3.597656 -10.414062 3.046875 -9.375 C 2.503906 -8.332031 2.1875 -7.300781 2.09375 -6.28125 C 2.007812 -5.257812 2.160156 -4.566406 2.546875 -4.203125 Z M 2.546875 -4.203125 "/></g></g></g><g fill="#ff2e7b" fill-opacity="1"><g transform="translate(80.508581, 169.687892)"><g><path d="M 23.8125 -7.28125 C 23.8125 -7.28125 23.820312 -7.296875 23.84375 -7.328125 C 23.96875 -7.441406 24.25 -7.703125 24.6875 -8.109375 C 25.132812 -8.515625 25.59375 -8.894531 26.0625 -9.25 C 26.539062 -9.601562 26.894531 -9.785156 27.125 -9.796875 C 27.351562 -9.816406 27.289062 -9.492188 26.9375 -8.828125 C 26.90625 -8.753906 26.84375 -8.65625 26.75 -8.53125 C 26.65625 -8.414062 26.5625 -8.285156 26.46875 -8.140625 C 26.4375 -8.117188 26.410156 -8.09375 26.390625 -8.0625 C 24.359375 -5.945312 22.773438 -4.460938 21.640625 -3.609375 C 20.503906 -2.765625 19.390625 -2.390625 18.296875 -2.484375 C 17.148438 -2.597656 16.378906 -3.125 15.984375 -4.0625 C 15.585938 -5.007812 15.414062 -6.175781 15.46875 -7.5625 C 15.519531 -8.957031 15.640625 -10.359375 15.828125 -11.765625 C 16.015625 -13.242188 16.109375 -14.5 16.109375 -15.53125 C 16.109375 -16.570312 15.820312 -17.164062 15.25 -17.3125 C 14.800781 -17.332031 14.304688 -16.8125 13.765625 -15.75 C 13.234375 -14.6875 12.71875 -13.425781 12.21875 -11.96875 C 11.71875 -10.507812 11.296875 -9.195312 10.953125 -8.03125 C 10.640625 -7.050781 10.425781 -6.40625 10.3125 -6.09375 C 10.113281 -5.625 9.789062 -5.328125 9.34375 -5.203125 C 8.894531 -5.078125 8.441406 -5.113281 7.984375 -5.3125 C 7.671875 -5.457031 7.503906 -5.6875 7.484375 -6 C 7.390625 -6.6875 7.359375 -7.398438 7.390625 -8.140625 C 7.390625 -8.640625 7.375 -9.117188 7.34375 -9.578125 C 7.34375 -9.691406 7.34375 -9.832031 7.34375 -10 C 7.375 -10.21875 7.378906 -10.441406 7.359375 -10.671875 C 7.347656 -10.910156 7.320312 -11.113281 7.28125 -11.28125 C 7.25 -11.457031 7.171875 -11.554688 7.046875 -11.578125 C 6.816406 -11.578125 6.535156 -11.304688 6.203125 -10.765625 C 5.878906 -10.234375 5.550781 -9.570312 5.21875 -8.78125 C 4.894531 -7.988281 4.601562 -7.273438 4.34375 -6.640625 C 4.144531 -6.097656 4 -5.726562 3.90625 -5.53125 C 3.851562 -5.4375 3.816406 -5.363281 3.796875 -5.3125 C 3.535156 -4.769531 3.257812 -4.242188 2.96875 -3.734375 C 2.738281 -3.304688 2.378906 -3.046875 1.890625 -2.953125 C 0.796875 -2.804688 0.210938 -3.234375 0.140625 -4.234375 C 0.078125 -6.816406 0.015625 -9.410156 -0.046875 -12.015625 C -0.015625 -12.503906 0.203125 -12.820312 0.609375 -12.96875 C 1.015625 -13.113281 1.429688 -13.113281 1.859375 -12.96875 C 2.285156 -12.820312 2.523438 -12.5625 2.578125 -12.1875 C 2.609375 -12.019531 2.625 -11.832031 2.625 -11.625 C 2.738281 -10.519531 2.875 -9.96875 3.03125 -9.96875 C 3.1875 -9.96875 3.550781 -10.445312 4.125 -11.40625 C 4.40625 -11.90625 4.703125 -12.394531 5.015625 -12.875 C 5.398438 -13.539062 5.890625 -14.113281 6.484375 -14.59375 C 7.148438 -15.019531 7.78125 -15.148438 8.375 -14.984375 C 8.976562 -14.816406 9.457031 -14.375 9.8125 -13.65625 C 10.03125 -13.195312 10.222656 -13.007812 10.390625 -13.09375 C 10.390625 -13.09375 10.410156 -13.101562 10.453125 -13.125 C 10.503906 -13.3125 10.726562 -13.816406 11.125 -14.640625 C 11.53125 -15.460938 12.066406 -16.367188 12.734375 -17.359375 C 13.410156 -18.347656 14.164062 -19.15625 15 -19.78125 C 15.570312 -20.1875 16.1875 -20.410156 16.84375 -20.453125 C 17.5 -20.503906 18.078125 -20.328125 18.578125 -19.921875 C 19.085938 -19.515625 19.382812 -18.8125 19.46875 -17.8125 C 19.519531 -17.019531 19.46875 -15.890625 19.3125 -14.421875 C 19.15625 -12.960938 18.972656 -11.53125 18.765625 -10.125 C 18.597656 -8.800781 18.488281 -7.785156 18.4375 -7.078125 C 18.375 -5.585938 18.628906 -4.773438 19.203125 -4.640625 C 19.773438 -4.515625 20.488281 -4.742188 21.34375 -5.328125 C 22.207031 -5.921875 23.03125 -6.570312 23.8125 -7.28125 Z M 23.8125 -7.28125 "/></g></g></g><g fill="#ff2e7b" fill-opacity="1"><g transform="translate(105.818607, 169.687892)"><g><path d="M 1.890625 -1.734375 C 1.628906 -1.710938 1.34375 -1.894531 1.03125 -2.28125 C 0.71875 -2.675781 0.441406 -3.351562 0.203125 -4.3125 C -0.0234375 -5.269531 -0.109375 -6.59375 -0.046875 -8.28125 C -0.046875 -8.445312 -0.046875 -8.660156 -0.046875 -8.921875 C -0.046875 -9.578125 -0.015625 -10.34375 0.046875 -11.21875 C 0.109375 -12.101562 0.234375 -12.890625 0.421875 -13.578125 C 0.617188 -14.273438 0.921875 -14.695312 1.328125 -14.84375 C 2.535156 -15.164062 3.191406 -14.738281 3.296875 -13.5625 C 3.296875 -13.195312 3.285156 -12.820312 3.265625 -12.4375 C 3.234375 -12.269531 3.21875 -12.085938 3.21875 -11.890625 C 3.195312 -11.347656 3.171875 -10.816406 3.140625 -10.296875 C 3.140625 -9.835938 3.125 -9.394531 3.09375 -8.96875 C 3.09375 -8.675781 3.09375 -8.257812 3.09375 -7.71875 C 3.125 -6.945312 3.128906 -6.109375 3.109375 -5.203125 C 3.097656 -4.296875 3 -3.507812 2.8125 -2.84375 C 2.632812 -2.175781 2.328125 -1.804688 1.890625 -1.734375 Z M 3.046875 -18.890625 C 2.898438 -18.742188 2.703125 -18.648438 2.453125 -18.609375 C 2.203125 -18.578125 2.003906 -18.597656 1.859375 -18.671875 C 1.710938 -18.816406 1.613281 -18.976562 1.5625 -19.15625 C 1.519531 -19.332031 1.5 -19.539062 1.5 -19.78125 C 1.53125 -19.851562 1.546875 -19.914062 1.546875 -19.96875 C 1.566406 -20.195312 1.625 -20.421875 1.71875 -20.640625 C 1.976562 -21.304688 2.503906 -21.59375 3.296875 -21.5 C 3.585938 -21.476562 3.800781 -21.363281 3.9375 -21.15625 C 4.082031 -20.957031 4.128906 -20.734375 4.078125 -20.484375 C 3.890625 -19.878906 3.546875 -19.347656 3.046875 -18.890625 Z M 3.046875 -18.890625 "/></g></g></g><g fill="#ff2e7b" fill-opacity="1"><g transform="translate(111.130588, 169.687892)"><g><path d="M 10.75 -52.96875 C 12.320312 -52.757812 13.6875 -51.644531 14.84375 -49.625 C 16 -47.613281 16.785156 -45.007812 17.203125 -41.8125 C 17.617188 -38.625 17.484375 -35.175781 16.796875 -31.46875 C 16.109375 -27.757812 14.707031 -24.109375 12.59375 -20.515625 C 10.476562 -16.921875 7.484375 -13.691406 3.609375 -10.828125 C 3.734375 -9.328125 3.960938 -7.847656 4.296875 -6.390625 C 4.640625 -4.929688 5.140625 -3.769531 5.796875 -2.90625 C 6.398438 -2.21875 7.109375 -2.003906 7.921875 -2.265625 C 8.742188 -2.523438 9.566406 -3.066406 10.390625 -3.890625 C 11.222656 -4.722656 11.976562 -5.632812 12.65625 -6.625 C 13.332031 -7.613281 13.828125 -8.476562 14.140625 -9.21875 C 14.398438 -9.769531 14.65625 -10.046875 14.90625 -10.046875 C 15.164062 -10.046875 15.238281 -9.769531 15.125 -9.21875 C 14.664062 -7.90625 14.109375 -6.640625 13.453125 -5.421875 C 12.796875 -4.203125 11.9375 -3.101562 10.875 -2.125 C 10.070312 -1.363281 9.109375 -0.863281 7.984375 -0.625 C 6.210938 -0.363281 4.773438 -0.832031 3.671875 -2.03125 C 2.566406 -3.238281 1.75 -4.960938 1.21875 -7.203125 C 0.863281 -8.609375 0.617188 -10.707031 0.484375 -13.5 C 0.359375 -16.300781 0.359375 -19.445312 0.484375 -22.9375 C 0.617188 -26.425781 0.914062 -29.957031 1.375 -33.53125 C 1.84375 -37.113281 2.472656 -40.398438 3.265625 -43.390625 C 4.066406 -46.390625 5.082031 -48.769531 6.3125 -50.53125 C 7.550781 -52.300781 9.03125 -53.113281 10.75 -52.96875 Z M 3.65625 -13.1875 C 7.09375 -16.363281 9.671875 -19.71875 11.390625 -23.25 C 13.109375 -26.789062 14.191406 -30.257812 14.640625 -33.65625 C 15.097656 -37.050781 15.132812 -40.113281 14.75 -42.84375 C 14.375 -45.582031 13.773438 -47.734375 12.953125 -49.296875 C 12.140625 -50.859375 11.34375 -51.566406 10.5625 -51.421875 C 9.59375 -51.140625 8.734375 -50.140625 7.984375 -48.421875 C 7.242188 -46.703125 6.613281 -44.53125 6.09375 -41.90625 C 5.582031 -39.28125 5.15625 -36.476562 4.8125 -33.5 C 4.46875 -30.519531 4.203125 -27.628906 4.015625 -24.828125 C 3.828125 -22.035156 3.707031 -19.601562 3.65625 -17.53125 C 3.601562 -15.457031 3.601562 -14.007812 3.65625 -13.1875 Z M 3.65625 -13.1875 "/></g></g></g><g fill="#ff2e7b" fill-opacity="1"><g transform="translate(125.015955, 169.687892)"><g><path d="M 1.890625 -1.734375 C 1.628906 -1.710938 1.34375 -1.894531 1.03125 -2.28125 C 0.71875 -2.675781 0.441406 -3.351562 0.203125 -4.3125 C -0.0234375 -5.269531 -0.109375 -6.59375 -0.046875 -8.28125 C -0.046875 -8.445312 -0.046875 -8.660156 -0.046875 -8.921875 C -0.046875 -9.578125 -0.015625 -10.34375 0.046875 -11.21875 C 0.109375 -12.101562 0.234375 -12.890625 0.421875 -13.578125 C 0.617188 -14.273438 0.921875 -14.695312 1.328125 -14.84375 C 2.535156 -15.164062 3.191406 -14.738281 3.296875 -13.5625 C 3.296875 -13.195312 3.285156 -12.820312 3.265625 -12.4375 C 3.234375 -12.269531 3.21875 -12.085938 3.21875 -11.890625 C 3.195312 -11.347656 3.171875 -10.816406 3.140625 -10.296875 C 3.140625 -9.835938 3.125 -9.394531 3.09375 -8.96875 C 3.09375 -8.675781 3.09375 -8.257812 3.09375 -7.71875 C 3.125 -6.945312 3.128906 -6.109375 3.109375 -5.203125 C 3.097656 -4.296875 3 -3.507812 2.8125 -2.84375 C 2.632812 -2.175781 2.328125 -1.804688 1.890625 -1.734375 Z M 3.046875 -18.890625 C 2.898438 -18.742188 2.703125 -18.648438 2.453125 -18.609375 C 2.203125 -18.578125 2.003906 -18.597656 1.859375 -18.671875 C 1.710938 -18.816406 1.613281 -18.976562 1.5625 -19.15625 C 1.519531 -19.332031 1.5 -19.539062 1.5 -19.78125 C 1.53125 -19.851562 1.546875 -19.914062 1.546875 -19.96875 C 1.566406 -20.195312 1.625 -20.421875 1.71875 -20.640625 C 1.976562 -21.304688 2.503906 -21.59375 3.296875 -21.5 C 3.585938 -21.476562 3.800781 -21.363281 3.9375 -21.15625 C 4.082031 -20.957031 4.128906 -20.734375 4.078125 -20.484375 C 3.890625 -19.878906 3.546875 -19.347656 3.046875 -18.890625 Z M 3.046875 -18.890625 "/></g></g></g><g fill="#ff2e7b" fill-opacity="1"><g transform="translate(130.327936, 169.687892)"><g><path d="M 17.390625 -9.359375 C 17.648438 -9.503906 17.910156 -9.609375 18.171875 -9.671875 C 18.429688 -9.742188 18.59375 -9.738281 18.65625 -9.65625 C 18.726562 -9.570312 18.625 -9.351562 18.34375 -9 C 17.414062 -7.976562 16.328125 -7.039062 15.078125 -6.1875 C 13.835938 -5.34375 12.578125 -4.625 11.296875 -4.03125 C 10.265625 -3.570312 9.175781 -3.203125 8.03125 -2.921875 C 6.882812 -2.648438 5.75 -2.59375 4.625 -2.75 C 3.507812 -2.90625 2.492188 -3.398438 1.578125 -4.234375 C 0.484375 -5.328125 -0.109375 -6.71875 -0.203125 -8.40625 C -0.304688 -10.09375 0.0859375 -11.507812 0.984375 -12.65625 C 2.148438 -13.96875 3.628906 -14.8125 5.421875 -15.1875 C 7.210938 -15.570312 8.820312 -15.289062 10.25 -14.34375 C 10.945312 -13.851562 11.226562 -13.285156 11.09375 -12.640625 C 10.96875 -12.003906 10.625 -11.40625 10.0625 -10.84375 C 9.5 -10.28125 8.875 -9.859375 8.1875 -9.578125 C 7.15625 -9.171875 6.234375 -9.085938 5.421875 -9.328125 C 4.609375 -9.566406 3.972656 -9.890625 3.515625 -10.296875 C 3.191406 -10.179688 2.988281 -9.722656 2.90625 -8.921875 C 2.695312 -7.429688 3.164062 -6.21875 4.3125 -5.28125 C 5.269531 -4.5625 6.46875 -4.363281 7.90625 -4.6875 C 9.351562 -5.007812 10.832031 -5.582031 12.34375 -6.40625 C 13.863281 -7.226562 15.21875 -8.007812 16.40625 -8.75 C 16.769531 -8.945312 17.097656 -9.148438 17.390625 -9.359375 Z M 7.890625 -13.125 C 7.722656 -13.363281 7.441406 -13.457031 7.046875 -13.40625 C 6.660156 -13.363281 6.257812 -13.242188 5.84375 -13.046875 C 5.4375 -12.847656 5.078125 -12.640625 4.765625 -12.421875 C 4.460938 -12.210938 4.332031 -12.0625 4.375 -11.96875 C 4.375 -11.914062 4.410156 -11.820312 4.484375 -11.6875 C 4.554688 -11.5625 4.660156 -11.425781 4.796875 -11.28125 C 4.941406 -11.144531 5.132812 -11.046875 5.375 -10.984375 C 5.625 -10.929688 5.9375 -10.945312 6.3125 -11.03125 C 6.90625 -11.207031 7.320312 -11.429688 7.5625 -11.703125 C 7.8125 -11.972656 7.953125 -12.238281 7.984375 -12.5 C 8.015625 -12.769531 7.984375 -12.976562 7.890625 -13.125 Z M 7.890625 -13.125 "/></g></g></g><g fill="#ff2e7b" fill-opacity="1"><g transform="translate(146.869293, 169.687892)"><g><path d="M 5.78125 -7.109375 C 6.226562 -6.535156 6.515625 -5.941406 6.640625 -5.328125 C 6.773438 -4.722656 6.820312 -4.0625 6.78125 -3.34375 C 6.75 -2.625 6.519531 -1.984375 6.09375 -1.421875 C 5.664062 -0.867188 4.953125 -0.53125 3.953125 -0.40625 C 2.941406 -0.332031 2.039062 -0.488281 1.25 -0.875 C 0.46875 -1.257812 -0.0195312 -1.816406 -0.21875 -2.546875 C -0.425781 -3.273438 -0.179688 -4.125 0.515625 -5.09375 C 0.960938 -5.644531 1.507812 -6.125 2.15625 -6.53125 C 2.375 -6.664062 2.597656 -6.820312 2.828125 -7 C 2.066406 -7.832031 1.335938 -8.679688 0.640625 -9.546875 C -0.046875 -10.421875 -0.488281 -11.203125 -0.6875 -11.890625 C -0.894531 -12.691406 -0.757812 -13.441406 -0.28125 -14.140625 C 0.195312 -14.847656 1.019531 -15.257812 2.1875 -15.375 C 2.757812 -15.425781 3.296875 -15.394531 3.796875 -15.28125 C 4.296875 -15.175781 4.765625 -14.929688 5.203125 -14.546875 C 5.285156 -14.460938 5.347656 -14.363281 5.390625 -14.25 C 5.429688 -14.132812 5.410156 -13.992188 5.328125 -13.828125 C 5.191406 -13.566406 4.976562 -13.4375 4.6875 -13.4375 C 4.476562 -13.4375 4.273438 -13.460938 4.078125 -13.515625 C 3.867188 -13.609375 3.679688 -13.691406 3.515625 -13.765625 C 3.398438 -13.835938 3.289062 -13.898438 3.1875 -13.953125 C 2.8125 -14.085938 2.519531 -14.0625 2.3125 -13.875 C 2.113281 -13.695312 2.015625 -13.421875 2.015625 -13.046875 C 2.035156 -12.378906 2.304688 -11.664062 2.828125 -10.90625 C 3.347656 -10.15625 3.863281 -9.460938 4.375 -8.828125 C 4.582031 -8.609375 4.757812 -8.394531 4.90625 -8.1875 C 5.050781 -8.039062 5.34375 -7.679688 5.78125 -7.109375 Z M 3.125 -1.875 C 3.5 -1.90625 3.742188 -2.113281 3.859375 -2.5 C 3.984375 -2.894531 4.03125 -3.328125 4 -3.796875 C 3.96875 -4.265625 3.9375 -4.613281 3.90625 -4.84375 C 3.851562 -4.988281 3.757812 -5.078125 3.625 -5.109375 C 3.5 -5.148438 3.378906 -5.144531 3.265625 -5.09375 C 2.835938 -4.757812 2.519531 -4.332031 2.3125 -3.8125 C 2.113281 -3.289062 2.128906 -2.832031 2.359375 -2.4375 C 2.441406 -2.300781 2.546875 -2.179688 2.671875 -2.078125 C 2.804688 -1.972656 2.957031 -1.90625 3.125 -1.875 Z M 3.125 -1.875 "/></g></g></g><g fill="#ff2e7b" fill-opacity="1"><g transform="translate(155.433517, 169.687892)"><g/></g></g><g fill="#ff2e7b" fill-opacity="1"><g transform="translate(9.148367, 225.187888)"><g/></g></g><g fill="#ff2e7b" fill-opacity="1"><g transform="translate(19.069272, 225.187888)"><g/></g></g><g fill="#ff2e7b" fill-opacity="1"><g transform="translate(28.990178, 225.187888)"><g/></g></g><g fill="#ff2e7b" fill-opacity="1"><g transform="translate(38.911083, 225.187888)"><g/></g></g><g fill="#ff2e7b" fill-opacity="1"><g transform="translate(48.831989, 225.187888)"><g/></g></g><g fill="#ff2e7b" fill-opacity="1"><g transform="translate(58.752894, 225.187888)"><g/></g></g><g fill="#ff2e7b" fill-opacity="1"><g transform="translate(68.6738, 225.187888)"><g/></g></g><g fill="#ff2e7b" fill-opacity="1"><g transform="translate(78.594705, 225.187888)"><g/></g></g><g fill="#ff2e7b" fill-opacity="1"><g transform="translate(88.51561, 225.187888)"><g/></g></g><g fill="#ff2e7b" fill-opacity="1"><g transform="translate(98.436516, 225.187888)"><g/></g></g><g fill="#ff2e7b" fill-opacity="1"><g transform="translate(108.357421, 225.187888)"><g/></g></g><g fill="#ff2e7b" fill-opacity="1"><g transform="translate(118.278327, 225.187888)"><g/></g></g><g fill="#ff2e7b" fill-opacity="1"><g transform="translate(128.199232, 225.187888)"><g/></g></g><g fill="#ff2e7b" fill-opacity="1"><g transform="translate(138.120138, 225.187888)"><g/></g></g><g fill="#ff2e7b" fill-opacity="1"><g transform="translate(148.041043, 225.187888)"><g/></g></g><g fill="#f6f8f7" fill-opacity="1"><g transform="translate(157.964767, 225.187888)"><g><path d="M 18.609375 -49.3125 C 19.234375 -49.457031 19.414062 -49.816406 19.15625 -50.390625 C 18.15625 -52.535156 16.5 -53.957031 14.1875 -54.65625 C 12.46875 -55.082031 10.566406 -54.9375 8.484375 -54.21875 C 6.410156 -53.5 4.753906 -52.394531 3.515625 -50.90625 C 3.441406 -50.78125 3.367188 -50.648438 3.296875 -50.515625 C 3.296875 -50.515625 3.285156 -50.515625 3.265625 -50.515625 C 2.804688 -49.597656 3.078125 -48.9375 4.078125 -48.53125 C 4.773438 -48.3125 5.453125 -48.175781 6.109375 -48.125 C 6.765625 -48.082031 7.320312 -48.0625 7.78125 -48.0625 C 10.15625 -48.113281 12.316406 -48.304688 14.265625 -48.640625 C 14.660156 -48.691406 15.050781 -48.742188 15.4375 -48.796875 C 16.488281 -48.910156 17.546875 -49.082031 18.609375 -49.3125 Z M 31.796875 -10.71875 C 35.140625 -11.101562 38.492188 -11.390625 41.859375 -11.578125 C 42.691406 -11.609375 43.519531 -11.597656 44.34375 -11.546875 C 44.425781 -11.515625 44.515625 -11.441406 44.609375 -11.328125 C 44.710938 -11.210938 44.785156 -11.097656 44.828125 -10.984375 C 44.828125 -10.898438 44.796875 -10.800781 44.734375 -10.6875 C 44.679688 -10.570312 44.609375 -10.472656 44.515625 -10.390625 C 44.367188 -10.273438 44.203125 -10.191406 44.015625 -10.140625 C 43.835938 -10.097656 43.644531 -10.078125 43.4375 -10.078125 L 43.21875 -10.078125 C 43.03125 -10.023438 42.832031 -10 42.625 -10 L 42.546875 -10 C 40.648438 -9.882812 38.757812 -9.726562 36.875 -9.53125 C 36.15625 -9.46875 35.441406 -9.394531 34.734375 -9.3125 C 31.867188 -8.9375 29.003906 -8.519531 26.140625 -8.0625 C 25.421875 -7.976562 24.894531 -7.878906 24.5625 -7.765625 C 24.226562 -7.648438 24.019531 -7.429688 23.9375 -7.109375 C 23.851562 -6.796875 23.78125 -6.296875 23.71875 -5.609375 L 23.71875 -5.53125 C 23 2.800781 22.050781 11.097656 20.875 19.359375 C 20.757812 20.128906 20.664062 20.882812 20.59375 21.625 L 20.234375 24.046875 C 20.210938 24.328125 20.15625 24.601562 20.0625 24.875 C 19.976562 25.144531 19.832031 25.394531 19.625 25.625 C 19.488281 25.769531 19.332031 25.867188 19.15625 25.921875 C 18.988281 26.015625 18.789062 26.015625 18.5625 25.921875 C 18.507812 25.960938 18.4375 25.992188 18.34375 26.015625 C 18.144531 26.097656 17.929688 26.085938 17.703125 25.984375 C 17.523438 25.890625 17.414062 25.765625 17.375 25.609375 C 17.34375 25.453125 17.335938 25.289062 17.359375 25.125 C 17.441406 24.40625 17.53125 23.703125 17.625 23.015625 L 17.96875 20.4375 C 18.476562 16.28125 18.914062 12.125 19.28125 7.96875 C 19.65625 3.8125 19.988281 -0.351562 20.28125 -4.53125 C 20.3125 -4.675781 20.328125 -4.820312 20.328125 -4.96875 C 20.378906 -5.289062 20.40625 -5.632812 20.40625 -6 C 20.382812 -6.3125 20.253906 -6.65625 20.015625 -7.03125 C 19.617188 -6.9375 19.203125 -6.863281 18.765625 -6.8125 C 17.191406 -6.550781 15.617188 -6.265625 14.046875 -5.953125 C 12.703125 -5.691406 11.375 -5.394531 10.0625 -5.0625 C 9.394531 -4.894531 8.71875 -4.71875 8.03125 -4.53125 C 7.8125 -4.476562 7.597656 -4.46875 7.390625 -4.5 L 7.234375 -4.453125 C 6.992188 -4.398438 6.757812 -4.390625 6.53125 -4.421875 C 6.445312 -4.421875 6.367188 -4.445312 6.296875 -4.5 C 6.222656 -4.5625 6.175781 -4.617188 6.15625 -4.671875 C 6.113281 -4.722656 6.085938 -4.789062 6.078125 -4.875 C 6.066406 -4.96875 6.070312 -5.054688 6.09375 -5.140625 C 6.1875 -5.398438 6.332031 -5.59375 6.53125 -5.71875 C 6.738281 -5.851562 6.953125 -5.957031 7.171875 -6.03125 C 8.929688 -6.789062 10.753906 -7.335938 12.640625 -7.671875 C 13.429688 -7.816406 14.234375 -7.972656 15.046875 -8.140625 L 19.15625 -8.921875 C 19.820312 -9.046875 20.234375 -9.191406 20.390625 -9.359375 C 20.546875 -9.523438 20.625 -9.894531 20.625 -10.46875 C 20.71875 -12.664062 20.816406 -14.875 20.921875 -17.09375 C 21.097656 -20.320312 21.234375 -23.5625 21.328125 -26.8125 C 21.429688 -30.070312 21.4375 -33.335938 21.34375 -36.609375 C 21.269531 -38.691406 21.160156 -40.78125 21.015625 -42.875 C 20.992188 -43.09375 20.984375 -43.320312 20.984375 -43.5625 C 20.910156 -44.25 20.804688 -44.914062 20.671875 -45.5625 C 20.492188 -46.601562 20.273438 -47.222656 20.015625 -47.421875 C 19.878906 -47.472656 19.679688 -47.5 19.421875 -47.5 L 18.90625 -47.421875 C 16.988281 -47.085938 15.066406 -46.800781 13.140625 -46.5625 C 12.691406 -46.46875 12.238281 -46.410156 11.78125 -46.390625 C 10.03125 -46.191406 8.265625 -46.09375 6.484375 -46.09375 C 5.222656 -46.070312 3.992188 -46.226562 2.796875 -46.5625 C 2.316406 -46.707031 1.859375 -46.910156 1.421875 -47.171875 C 0.472656 -47.796875 0.1875 -48.679688 0.5625 -49.828125 C 0.851562 -50.679688 1.320312 -51.429688 1.96875 -52.078125 C 3.570312 -53.585938 5.335938 -54.769531 7.265625 -55.625 C 8.867188 -56.3125 10.601562 -56.742188 12.46875 -56.921875 C 13.0625 -56.984375 13.675781 -57.023438 14.3125 -57.046875 C 17.945312 -57.097656 20.695312 -55.492188 22.5625 -52.234375 L 22.8125 -51.71875 C 22.875 -51.570312 22.945312 -51.441406 23.03125 -51.328125 C 23.289062 -50.785156 23.519531 -50.472656 23.71875 -50.390625 C 23.75 -50.367188 23.78125 -50.359375 23.8125 -50.359375 C 23.832031 -50.378906 23.867188 -50.390625 23.921875 -50.390625 C 24.734375 -50.554688 25.539062 -50.738281 26.34375 -50.9375 C 29.457031 -51.65625 32.578125 -52.429688 35.703125 -53.265625 C 39.710938 -54.378906 43.738281 -55.523438 47.78125 -56.703125 L 54.65625 -58.671875 C 55.601562 -58.929688 56.566406 -59.132812 57.546875 -59.28125 C 57.617188 -59.300781 57.6875 -59.300781 57.75 -59.28125 L 58.359375 -59.375 C 58.460938 -59.40625 58.578125 -59.382812 58.703125 -59.3125 C 58.835938 -59.238281 58.9375 -59.15625 59 -59.0625 C 59.101562 -58.894531 59.128906 -58.738281 59.078125 -58.59375 C 59.023438 -58.445312 58.929688 -58.332031 58.796875 -58.25 C 58.296875 -57.957031 57.773438 -57.710938 57.234375 -57.515625 C 55.796875 -57.085938 54.378906 -56.671875 52.984375 -56.265625 C 50.316406 -55.523438 47.648438 -54.753906 44.984375 -53.953125 C 40.179688 -52.492188 35.332031 -51.148438 30.4375 -49.921875 C 29.96875 -49.804688 29.515625 -49.703125 29.078125 -49.609375 L 25.140625 -48.671875 C 24.710938 -48.554688 24.4375 -48.421875 24.3125 -48.265625 C 24.195312 -48.109375 24.171875 -47.84375 24.234375 -47.46875 C 24.804688 -44.09375 25.125 -40.695312 25.1875 -37.28125 C 25.25 -33.875 25.207031 -30.476562 25.0625 -27.09375 C 24.875 -21.769531 24.566406 -16.46875 24.140625 -11.1875 C 24.140625 -10.945312 24.160156 -10.707031 24.203125 -10.46875 C 24.222656 -10.09375 24.390625 -9.890625 24.703125 -9.859375 C 24.796875 -9.859375 24.882812 -9.875 24.96875 -9.90625 L 25.484375 -10 C 27.597656 -10.289062 29.703125 -10.53125 31.796875 -10.71875 Z M 31.796875 -10.71875 "/></g></g></g><g fill="#f6f8f7" fill-opacity="1"><g transform="translate(201.398022, 225.187888)"><g><path d="M 5.015625 -14.296875 C 6.710938 -14.378906 7.878906 -13.59375 8.515625 -11.9375 C 8.972656 -10.726562 9.097656 -9.4375 8.890625 -8.0625 C 8.691406 -6.6875 8.234375 -5.539062 7.515625 -4.625 C 6.828125 -3.789062 5.988281 -3.253906 5 -3.015625 C 4.007812 -2.773438 3.039062 -2.851562 2.09375 -3.25 C 1.15625 -3.644531 0.410156 -4.429688 -0.140625 -5.609375 C -0.566406 -6.648438 -0.707031 -7.695312 -0.5625 -8.75 C -0.445312 -9.632812 -0.203125 -10.492188 0.171875 -11.328125 C 0.609375 -12.359375 1.25 -13.101562 2.09375 -13.5625 C 2.9375 -14.03125 3.910156 -14.273438 5.015625 -14.296875 Z M 4.265625 -4.421875 C 4.972656 -4.847656 5.484375 -5.46875 5.796875 -6.28125 C 6.109375 -7.09375 6.28125 -7.960938 6.3125 -8.890625 C 6.351562 -9.828125 6.28125 -10.695312 6.09375 -11.5 C 5.84375 -12.625 5.507812 -13.175781 5.09375 -13.15625 C 4.675781 -13.132812 4.242188 -12.757812 3.796875 -12.03125 C 3.359375 -11.300781 2.972656 -10.421875 2.640625 -9.390625 C 2.316406 -8.367188 2.117188 -7.382812 2.046875 -6.4375 C 1.972656 -5.488281 2.101562 -4.800781 2.4375 -4.375 C 2.769531 -3.945312 3.378906 -3.960938 4.265625 -4.421875 Z M 4.265625 -4.421875 "/></g></g></g><g fill="#f6f8f7" fill-opacity="1"><g transform="translate(211.885285, 225.187888)"><g><path d="M 12.46875 -9.359375 C 12.707031 -9.867188 12.875 -10.101562 12.96875 -10.0625 C 13.0625 -10.019531 13.082031 -9.8125 13.03125 -9.4375 C 12.988281 -9.070312 12.910156 -8.65625 12.796875 -8.1875 C 12.628906 -7.46875 12.335938 -6.632812 11.921875 -5.6875 C 11.503906 -4.75 11.039062 -3.894531 10.53125 -3.125 C 9.769531 -2.0625 8.832031 -1.257812 7.71875 -0.71875 C 6.613281 -0.175781 5.609375 -0.0390625 4.703125 -0.3125 C 3.796875 -0.582031 3.269531 -1.4375 3.125 -2.875 C 3.101562 -4.070312 3.207031 -5.382812 3.4375 -6.8125 C 3.519531 -7.414062 3.601562 -8.003906 3.6875 -8.578125 C 3.6875 -8.785156 3.632812 -8.941406 3.53125 -9.046875 C 3.425781 -9.160156 3.289062 -9.207031 3.125 -9.1875 C 3.007812 -9.1875 2.878906 -9.1875 2.734375 -9.1875 C 2.015625 -9.0625 1.285156 -9.070312 0.546875 -9.21875 C -0.335938 -9.476562 -0.851562 -9.914062 -1 -10.53125 C -1.144531 -11.15625 -1.128906 -11.96875 -0.953125 -12.96875 C -0.867188 -13.6875 -0.601562 -14.222656 -0.15625 -14.578125 C 0.289062 -14.941406 0.8125 -15.085938 1.40625 -15.015625 C 2.238281 -14.941406 2.640625 -14.625 2.609375 -14.0625 C 2.585938 -13.5 2.4375 -12.898438 2.15625 -12.265625 C 1.894531 -11.734375 1.753906 -11.285156 1.734375 -10.921875 C 1.722656 -10.566406 2.03125 -10.441406 2.65625 -10.546875 C 2.800781 -10.585938 2.957031 -10.632812 3.125 -10.6875 C 3.363281 -10.78125 3.628906 -10.859375 3.921875 -10.921875 C 4.222656 -10.992188 4.613281 -11.015625 5.09375 -10.984375 C 5.664062 -10.953125 6.046875 -10.6875 6.234375 -10.1875 C 6.429688 -9.6875 6.515625 -9.054688 6.484375 -8.296875 C 6.460938 -7.546875 6.390625 -6.78125 6.265625 -6 C 6.128906 -5.019531 6.0625 -4.179688 6.0625 -3.484375 C 6.0625 -2.785156 6.257812 -2.378906 6.65625 -2.265625 C 7.195312 -2.117188 7.992188 -2.601562 9.046875 -3.71875 C 10.109375 -4.832031 11.25 -6.710938 12.46875 -9.359375 Z M 12.46875 -9.359375 "/></g></g></g><g fill="#f6f8f7" fill-opacity="1"><g transform="translate(223.847575, 225.187888)"><g/></g></g><g fill="#f6f8f7" fill-opacity="1"><g transform="translate(233.768481, 225.187888)"><g/></g></g><g fill="#f6f8f7" fill-opacity="1"><g transform="translate(243.689386, 225.187888)"><g/></g></g><g fill="#f6f8f7" fill-opacity="1"><g transform="translate(253.613198, 225.187888)"><g><path d="M 46.84375 -10.328125 C 47.125 -10.367188 47.351562 -10.316406 47.53125 -10.171875 C 47.707031 -10.035156 47.75 -9.863281 47.65625 -9.65625 C 46.457031 -6.53125 45.078125 -3.488281 43.515625 -0.53125 C 41.953125 2.414062 40.109375 5.265625 37.984375 8.015625 C 36.410156 10.066406 34.679688 12.023438 32.796875 13.890625 C 31.410156 15.210938 29.898438 16.390625 28.265625 17.421875 C 26.640625 18.453125 24.851562 19.28125 22.90625 19.90625 C 15.769531 22.164062 9.269531 21.160156 3.40625 16.890625 C 1.914062 15.816406 0.617188 14.582031 -0.484375 13.1875 C -1.597656 11.789062 -2.550781 10.304688 -3.34375 8.734375 C -4.601562 6.242188 -5.59375 3.695312 -6.3125 1.09375 C -7.03125 -1.507812 -7.519531 -4.171875 -7.78125 -6.890625 C -7.863281 -8.160156 -7.921875 -9.484375 -7.953125 -10.859375 C -7.972656 -11.546875 -8 -12.265625 -8.03125 -13.015625 C -7.863281 -19.484375 -6.90625 -25.851562 -5.15625 -32.125 C -3.414062 -38.40625 -0.734375 -44.492188 2.890625 -50.390625 C 5.003906 -53.828125 7.550781 -57.003906 10.53125 -59.921875 C 12.988281 -62.359375 15.882812 -64.304688 19.21875 -65.765625 C 21.96875 -66.953125 24.875 -67.441406 27.9375 -67.234375 C 28.882812 -67.179688 29.785156 -66.976562 30.640625 -66.625 C 34.585938 -65.019531 37.28125 -62.390625 38.71875 -58.734375 C 38.78125 -58.585938 38.820312 -58.425781 38.84375 -58.25 C 38.9375 -57.707031 38.675781 -57.320312 38.0625 -57.09375 C 37.46875 -56.800781 36.988281 -56.882812 36.625 -57.34375 C 36.300781 -57.769531 36.023438 -58.210938 35.796875 -58.671875 C 35.773438 -58.734375 35.734375 -58.804688 35.671875 -58.890625 C 34.660156 -60.609375 33.3125 -62.085938 31.625 -63.328125 C 30.1875 -64.347656 28.664062 -64.972656 27.0625 -65.203125 C 25.46875 -65.429688 23.8125 -65.363281 22.09375 -65 C 20.914062 -64.71875 19.828125 -64.316406 18.828125 -63.796875 C 17.828125 -63.285156 16.863281 -62.695312 15.9375 -62.03125 C 13.3125 -60.03125 11.007812 -57.738281 9.03125 -55.15625 C 4.582031 -49.425781 1.269531 -43.222656 -0.90625 -36.546875 C -2.382812 -32.191406 -3.488281 -27.78125 -4.21875 -23.3125 C -4.957031 -18.851562 -5.195312 -14.34375 -4.9375 -9.78125 C -4.769531 -6.46875 -4.269531 -3.222656 -3.4375 -0.046875 C -2.601562 3.117188 -1.328125 6.1875 0.390625 9.15625 C 2.273438 12.425781 5 15.003906 8.5625 16.890625 C 11.738281 18.535156 14.957031 19.25 18.21875 19.03125 C 21.488281 18.820312 24.5 17.769531 27.25 15.875 C 29.019531 14.644531 30.609375 13.238281 32.015625 11.65625 C 33.960938 9.507812 35.726562 7.265625 37.3125 4.921875 C 38.90625 2.585938 40.40625 0.191406 41.8125 -2.265625 C 42.675781 -3.867188 43.503906 -5.484375 44.296875 -7.109375 C 44.585938 -7.679688 44.875 -8.253906 45.15625 -8.828125 C 45.34375 -9.203125 45.554688 -9.53125 45.796875 -9.8125 C 46.035156 -10.101562 46.382812 -10.273438 46.84375 -10.328125 Z M 46.84375 -10.328125 "/></g></g></g><g fill="#f6f8f7" fill-opacity="1"><g transform="translate(298.745512, 225.187888)"><g><path d="M 26.8125 -10.828125 C 26.988281 -11.046875 27.140625 -11.101562 27.265625 -11 C 27.398438 -10.90625 27.429688 -10.726562 27.359375 -10.46875 C 27.046875 -8.800781 25.1875 -7.382812 21.78125 -6.21875 C 19.632812 -5.382812 17.71875 -5.007812 16.03125 -5.09375 C 14.34375 -5.1875 12.988281 -5.847656 11.96875 -7.078125 C 10.957031 -8.304688 10.394531 -10.238281 10.28125 -12.875 C 10.207031 -14.039062 9.96875 -14.523438 9.5625 -14.328125 C 9.15625 -14.140625 8.664062 -13.539062 8.09375 -12.53125 C 7.519531 -11.53125 6.945312 -10.398438 6.375 -9.140625 C 5.800781 -7.878906 5.3125 -6.769531 4.90625 -5.8125 C 4.5 -4.851562 4.285156 -4.316406 4.265625 -4.203125 C 4.191406 -3.992188 4.117188 -3.789062 4.046875 -3.59375 C 3.878906 -3.019531 3.664062 -2.460938 3.40625 -1.921875 C 3.164062 -1.484375 2.8125 -1.1875 2.34375 -1.03125 C 1.875 -0.875 1.378906 -0.894531 0.859375 -1.09375 C 0.546875 -1.28125 0.332031 -1.53125 0.21875 -1.84375 C 0.0390625 -2.382812 -0.00390625 -2.910156 0.078125 -3.421875 C 0.078125 -3.484375 0.078125 -3.539062 0.078125 -3.59375 C 0.265625 -6.144531 0.335938 -9.925781 0.296875 -14.9375 C 0.296875 -18.144531 0.316406 -21.554688 0.359375 -25.171875 C 0.410156 -28.785156 0.519531 -32.347656 0.6875 -35.859375 C 0.894531 -39.671875 1.273438 -43.160156 1.828125 -46.328125 C 2.378906 -49.492188 3.25 -52.054688 4.4375 -54.015625 C 5.632812 -55.972656 7.296875 -57.070312 9.421875 -57.3125 C 10.328125 -57.394531 11.242188 -57.289062 12.171875 -57 C 13.109375 -56.71875 13.992188 -56.175781 14.828125 -55.375 C 16.597656 -53.675781 17.882812 -51.320312 18.6875 -48.3125 C 19.5 -45.3125 19.585938 -41.847656 18.953125 -37.921875 C 18.328125 -33.992188 16.769531 -29.8125 14.28125 -25.375 C 11.800781 -20.9375 8.1875 -16.441406 3.4375 -11.890625 C 3.382812 -11.773438 3.359375 -11.6875 3.359375 -11.625 C 3.316406 -11.570312 3.296875 -11.53125 3.296875 -11.5 C 3.296875 -11.476562 3.296875 -11.457031 3.296875 -11.4375 C 3.296875 -11.414062 3.296875 -11.398438 3.296875 -11.390625 C 3.296875 -11.378906 3.296875 -11.375 3.296875 -11.375 C 3.296875 -11.375 3.304688 -11.375 3.328125 -11.375 C 3.347656 -11.375 3.359375 -11.359375 3.359375 -11.328125 C 3.359375 -11.304688 3.363281 -11.273438 3.375 -11.234375 C 3.394531 -11.203125 3.40625 -11.148438 3.40625 -11.078125 C 3.40625 -11.015625 3.40625 -10.929688 3.40625 -10.828125 C 3.40625 -10.734375 3.40625 -10.613281 3.40625 -10.46875 C 3.40625 -10.320312 3.394531 -10.15625 3.375 -9.96875 C 3.363281 -9.78125 3.359375 -9.5625 3.359375 -9.3125 C 3.648438 -9.800781 3.9375 -10.316406 4.21875 -10.859375 C 4.875 -12.117188 5.632812 -13.289062 6.5 -14.375 C 7.375 -15.46875 8.546875 -16.144531 10.015625 -16.40625 C 10.640625 -16.488281 11.296875 -16.4375 11.984375 -16.25 C 12.679688 -16.070312 13.140625 -15.59375 13.359375 -14.8125 C 13.523438 -13.875 13.582031 -12.898438 13.53125 -11.890625 C 13.476562 -11.179688 13.488281 -10.507812 13.5625 -9.875 C 13.632812 -9.238281 13.847656 -8.695312 14.203125 -8.25 C 14.566406 -7.8125 15.191406 -7.523438 16.078125 -7.390625 C 17.273438 -7.203125 18.59375 -7.238281 20.03125 -7.5 C 21.476562 -7.757812 22.820312 -8.175781 24.0625 -8.75 C 25.300781 -9.320312 26.21875 -10.015625 26.8125 -10.828125 Z M 6.625 -52.15625 C 5.882812 -50.175781 5.28125 -47.320312 4.8125 -43.59375 C 4.351562 -39.875 4.007812 -35.941406 3.78125 -31.796875 C 3.550781 -27.660156 3.40625 -23.976562 3.34375 -20.75 C 3.289062 -17.53125 3.265625 -15.421875 3.265625 -14.421875 C 5.046875 -15.847656 6.925781 -18.054688 8.90625 -21.046875 C 10.894531 -24.046875 12.648438 -27.335938 14.171875 -30.921875 C 15.703125 -34.503906 16.625 -37.898438 16.9375 -41.109375 C 17.101562 -43.890625 16.695312 -46.632812 15.71875 -49.34375 C 14.75 -52.050781 13.535156 -53.988281 12.078125 -55.15625 C 11.046875 -55.875 10.039062 -55.945312 9.0625 -55.375 C 8.082031 -54.800781 7.269531 -53.726562 6.625 -52.15625 Z M 6.625 -52.15625 "/></g></g></g><g fill="#f6f8f7" fill-opacity="1"><g transform="translate(324.485184, 225.187888)"><g><path d="M 12.46875 -9.359375 C 12.707031 -9.867188 12.875 -10.101562 12.96875 -10.0625 C 13.0625 -10.019531 13.082031 -9.8125 13.03125 -9.4375 C 12.988281 -9.070312 12.910156 -8.65625 12.796875 -8.1875 C 12.628906 -7.46875 12.335938 -6.632812 11.921875 -5.6875 C 11.503906 -4.75 11.039062 -3.894531 10.53125 -3.125 C 9.769531 -2.0625 8.832031 -1.257812 7.71875 -0.71875 C 6.613281 -0.175781 5.609375 -0.0390625 4.703125 -0.3125 C 3.796875 -0.582031 3.269531 -1.4375 3.125 -2.875 C 3.101562 -4.070312 3.207031 -5.382812 3.4375 -6.8125 C 3.519531 -7.414062 3.601562 -8.003906 3.6875 -8.578125 C 3.6875 -8.785156 3.632812 -8.941406 3.53125 -9.046875 C 3.425781 -9.160156 3.289062 -9.207031 3.125 -9.1875 C 3.007812 -9.1875 2.878906 -9.1875 2.734375 -9.1875 C 2.015625 -9.0625 1.285156 -9.070312 0.546875 -9.21875 C -0.335938 -9.476562 -0.851562 -9.914062 -1 -10.53125 C -1.144531 -11.15625 -1.128906 -11.96875 -0.953125 -12.96875 C -0.867188 -13.6875 -0.601562 -14.222656 -0.15625 -14.578125 C 0.289062 -14.941406 0.8125 -15.085938 1.40625 -15.015625 C 2.238281 -14.941406 2.640625 -14.625 2.609375 -14.0625 C 2.585938 -13.5 2.4375 -12.898438 2.15625 -12.265625 C 1.894531 -11.734375 1.753906 -11.285156 1.734375 -10.921875 C 1.722656 -10.566406 2.03125 -10.441406 2.65625 -10.546875 C 2.800781 -10.585938 2.957031 -10.632812 3.125 -10.6875 C 3.363281 -10.78125 3.628906 -10.859375 3.921875 -10.921875 C 4.222656 -10.992188 4.613281 -11.015625 5.09375 -10.984375 C 5.664062 -10.953125 6.046875 -10.6875 6.234375 -10.1875 C 6.429688 -9.6875 6.515625 -9.054688 6.484375 -8.296875 C 6.460938 -7.546875 6.390625 -6.78125 6.265625 -6 C 6.128906 -5.019531 6.0625 -4.179688 6.0625 -3.484375 C 6.0625 -2.785156 6.257812 -2.378906 6.65625 -2.265625 C 7.195312 -2.117188 7.992188 -2.601562 9.046875 -3.71875 C 10.109375 -4.832031 11.25 -6.710938 12.46875 -9.359375 Z M 12.46875 -9.359375 "/></g></g></g><g fill="#f6f8f7" fill-opacity="1"><g transform="translate(336.437141, 225.187888)"><g><path d="M 1.890625 -1.734375 C 1.628906 -1.710938 1.34375 -1.894531 1.03125 -2.28125 C 0.71875 -2.675781 0.441406 -3.351562 0.203125 -4.3125 C -0.0234375 -5.269531 -0.109375 -6.59375 -0.046875 -8.28125 C -0.046875 -8.445312 -0.046875 -8.660156 -0.046875 -8.921875 C -0.046875 -9.578125 -0.015625 -10.34375 0.046875 -11.21875 C 0.109375 -12.101562 0.234375 -12.890625 0.421875 -13.578125 C 0.617188 -14.273438 0.921875 -14.695312 1.328125 -14.84375 C 2.535156 -15.164062 3.191406 -14.738281 3.296875 -13.5625 C 3.296875 -13.195312 3.285156 -12.820312 3.265625 -12.4375 C 3.234375 -12.269531 3.21875 -12.085938 3.21875 -11.890625 C 3.195312 -11.347656 3.171875 -10.816406 3.140625 -10.296875 C 3.140625 -9.835938 3.125 -9.394531 3.09375 -8.96875 C 3.09375 -8.675781 3.09375 -8.257812 3.09375 -7.71875 C 3.125 -6.945312 3.128906 -6.109375 3.109375 -5.203125 C 3.097656 -4.296875 3 -3.507812 2.8125 -2.84375 C 2.632812 -2.175781 2.328125 -1.804688 1.890625 -1.734375 Z M 3.046875 -18.890625 C 2.898438 -18.742188 2.703125 -18.648438 2.453125 -18.609375 C 2.203125 -18.578125 2.003906 -18.597656 1.859375 -18.671875 C 1.710938 -18.816406 1.613281 -18.976562 1.5625 -19.15625 C 1.519531 -19.332031 1.5 -19.539062 1.5 -19.78125 C 1.53125 -19.851562 1.546875 -19.914062 1.546875 -19.96875 C 1.566406 -20.195312 1.625 -20.421875 1.71875 -20.640625 C 1.976562 -21.304688 2.503906 -21.59375 3.296875 -21.5 C 3.585938 -21.476562 3.800781 -21.363281 3.9375 -21.15625 C 4.082031 -20.957031 4.128906 -20.734375 4.078125 -20.484375 C 3.890625 -19.878906 3.546875 -19.347656 3.046875 -18.890625 Z M 3.046875 -18.890625 "/></g></g></g><g fill="#f6f8f7" fill-opacity="1"><g transform="translate(341.749122, 225.187888)"><g><path d="M 5.78125 -7.109375 C 6.226562 -6.535156 6.515625 -5.941406 6.640625 -5.328125 C 6.773438 -4.722656 6.820312 -4.0625 6.78125 -3.34375 C 6.75 -2.625 6.519531 -1.984375 6.09375 -1.421875 C 5.664062 -0.867188 4.953125 -0.53125 3.953125 -0.40625 C 2.941406 -0.332031 2.039062 -0.488281 1.25 -0.875 C 0.46875 -1.257812 -0.0195312 -1.816406 -0.21875 -2.546875 C -0.425781 -3.273438 -0.179688 -4.125 0.515625 -5.09375 C 0.960938 -5.644531 1.507812 -6.125 2.15625 -6.53125 C 2.375 -6.664062 2.597656 -6.820312 2.828125 -7 C 2.066406 -7.832031 1.335938 -8.679688 0.640625 -9.546875 C -0.046875 -10.421875 -0.488281 -11.203125 -0.6875 -11.890625 C -0.894531 -12.691406 -0.757812 -13.441406 -0.28125 -14.140625 C 0.195312 -14.847656 1.019531 -15.257812 2.1875 -15.375 C 2.757812 -15.425781 3.296875 -15.394531 3.796875 -15.28125 C 4.296875 -15.175781 4.765625 -14.929688 5.203125 -14.546875 C 5.285156 -14.460938 5.347656 -14.363281 5.390625 -14.25 C 5.429688 -14.132812 5.410156 -13.992188 5.328125 -13.828125 C 5.191406 -13.566406 4.976562 -13.4375 4.6875 -13.4375 C 4.476562 -13.4375 4.273438 -13.460938 4.078125 -13.515625 C 3.867188 -13.609375 3.679688 -13.691406 3.515625 -13.765625 C 3.398438 -13.835938 3.289062 -13.898438 3.1875 -13.953125 C 2.8125 -14.085938 2.519531 -14.0625 2.3125 -13.875 C 2.113281 -13.695312 2.015625 -13.421875 2.015625 -13.046875 C 2.035156 -12.378906 2.304688 -11.664062 2.828125 -10.90625 C 3.347656 -10.15625 3.863281 -9.460938 4.375 -8.828125 C 4.582031 -8.609375 4.757812 -8.394531 4.90625 -8.1875 C 5.050781 -8.039062 5.34375 -7.679688 5.78125 -7.109375 Z M 3.125 -1.875 C 3.5 -1.90625 3.742188 -2.113281 3.859375 -2.5 C 3.984375 -2.894531 4.03125 -3.328125 4 -3.796875 C 3.96875 -4.265625 3.9375 -4.613281 3.90625 -4.84375 C 3.851562 -4.988281 3.757812 -5.078125 3.625 -5.109375 C 3.5 -5.148438 3.378906 -5.144531 3.265625 -5.09375 C 2.835938 -4.757812 2.519531 -4.332031 2.3125 -3.8125 C 2.113281 -3.289062 2.128906 -2.832031 2.359375 -2.4375 C 2.441406 -2.300781 2.546875 -2.179688 2.671875 -2.078125 C 2.804688 -1.972656 2.957031 -1.90625 3.125 -1.875 Z M 3.125 -1.875 "/></g></g></g><g fill="#f6f8f7" fill-opacity="1"><g transform="translate(350.302973, 225.187888)"><g><path d="M 9.59375 -22.671875 C 9.757812 -22.648438 9.867188 -22.53125 9.921875 -22.3125 C 9.984375 -22.101562 9.984375 -21.878906 9.921875 -21.640625 C 9.867188 -21.410156 9.757812 -21.296875 9.59375 -21.296875 L 3.28125 -21.34375 L 3.28125 -21.171875 C 3.257812 -20.242188 3.203125 -19.140625 3.109375 -17.859375 C 2.960938 -15.128906 2.890625 -12.367188 2.890625 -9.578125 C 2.890625 -8.617188 2.953125 -7.300781 3.078125 -5.625 C 3.210938 -3.957031 3.484375 -2.46875 3.890625 -1.15625 C 3.910156 -1.0625 3.992188 -0.898438 4.140625 -0.671875 C 4.304688 -0.378906 4.46875 -0.0546875 4.625 0.296875 C 4.78125 0.660156 4.851562 0.957031 4.84375 1.1875 C 4.832031 1.414062 4.65625 1.484375 4.3125 1.390625 C 3.195312 1.023438 2.34375 0.132812 1.75 -1.28125 C 1.164062 -2.707031 0.75 -4.367188 0.5 -6.265625 C 0.257812 -8.160156 0.128906 -10.007812 0.109375 -11.8125 C 0.0976562 -13.613281 0.117188 -15.070312 0.171875 -16.1875 C 0.210938 -16.957031 0.25 -17.726562 0.28125 -18.5 C 0.300781 -19.476562 0.328125 -20.441406 0.359375 -21.390625 L -4.421875 -21.46875 C -4.816406 -21.46875 -5.046875 -21.546875 -5.109375 -21.703125 C -5.171875 -21.859375 -5.128906 -22.015625 -4.984375 -22.171875 C -4.835938 -22.335938 -4.648438 -22.4375 -4.421875 -22.46875 L 0.390625 -22.546875 L 0.703125 -27.15625 C 0.753906 -27.894531 0.8125 -28.648438 0.875 -29.421875 C 0.875 -29.816406 0.890625 -30.21875 0.921875 -30.625 C 0.921875 -31.226562 1.0625 -31.789062 1.34375 -32.3125 C 1.6875 -32.757812 2.101562 -32.925781 2.59375 -32.8125 C 3.03125 -32.664062 3.273438 -32.367188 3.328125 -31.921875 C 3.378906 -31.171875 3.40625 -30.421875 3.40625 -29.671875 C 3.40625 -29.242188 3.40625 -28.8125 3.40625 -28.375 C 3.40625 -27.894531 3.40625 -27.414062 3.40625 -26.9375 L 3.28125 -22.578125 Z M 9.59375 -22.671875 "/></g></g></g><path fill="#ff2e7b" d="M 91.472656 219.675781 C 88.96875 219.722656 86.484375 219.820312 84.074219 219.941406 C 64.539062 220.914062 44.859375 219.683594 25.3125 219.683594 C 22.011719 219.683594 18.664062 219.46875 15.382812 219.363281 C 12.066406 219.257812 8.289062 218.992188 5.371094 220.875 C 1.289062 223.503906 5.992188 227.273438 9.082031 227.449219 C 14.902344 227.777344 20.636719 229.003906 26.433594 229.683594 C 29.972656 230.09375 33.863281 232.886719 28.671875 234.6875 C 26.542969 235.425781 18.863281 236.457031 23.191406 240.402344 C 25.523438 242.527344 33.765625 242.492188 36.574219 242.78125 C 42.085938 243.320312 47.609375 243.574219 53.148438 243.539062 C 61.621094 243.527344 70.886719 243.226562 79.195312 244.875 C 82.328125 245.492188 89.464844 246.707031 85.164062 250.796875 C 83.886719 252.011719 81.316406 252.472656 82.515625 254.761719 C 84.226562 258.023438 92.175781 256.035156 94.941406 256.945312 C 94.746094 257.007812 94.472656 257.078125 94.238281 257.140625 C 103.113281 257.074219 113.621094 259.109375 122.117188 256.394531 C 124.929688 255.496094 128.28125 253.988281 126.460938 250.394531 C 125.402344 248.308594 121.902344 247.078125 123.890625 243.855469 C 126.5 239.625 135.488281 242.1875 139.527344 239.640625 C 143.371094 237.21875 139.890625 232.726562 141.890625 229.839844 C 144.324219 226.332031 150.339844 228.652344 153.328125 226.546875 C 159.941406 221.878906 140.988281 219.78125 139.984375 219.679688 C 128.058594 218.492188 116.257812 221.210938 104.460938 220.070312 C 100.140625 219.691406 95.808594 219.558594 91.472656 219.675781 Z M 91.472656 219.675781 " fill-opacity="1" fill-rule="nonzero"/><path fill="#ffffff" d="M 305.269531 117.082031 C 302.765625 117.128906 300.28125 117.230469 297.871094 117.347656 C 278.335938 118.320312 258.65625 117.089844 239.109375 117.089844 C 235.808594 117.089844 232.457031 116.875 229.175781 116.769531 C 225.859375 116.664062 222.085938 116.398438 219.164062 118.28125 C 215.082031 120.910156 219.789062 124.683594 222.878906 124.855469 C 228.699219 125.183594 234.433594 126.410156 240.230469 127.089844 C 243.769531 127.5 247.660156 130.292969 242.46875 132.09375 C 240.339844 132.835938 232.660156 133.867188 236.988281 137.808594 C 239.320312 139.9375 247.5625 139.898438 250.371094 140.1875 C 255.882812 140.726562 261.40625 140.980469 266.945312 140.945312 C 275.417969 140.933594 284.683594 140.632812 292.992188 142.28125 C 296.121094 142.902344 303.257812 144.113281 298.960938 148.203125 C 297.683594 149.417969 295.113281 149.878906 296.3125 152.167969 C 298.019531 155.429688 305.972656 153.441406 308.738281 154.355469 C 308.539062 154.414062 308.265625 154.484375 308.035156 154.546875 C 316.910156 154.480469 327.417969 156.515625 335.914062 153.800781 C 338.726562 152.902344 342.078125 151.394531 340.257812 147.800781 C 339.199219 145.714844 335.699219 144.488281 337.6875 141.261719 C 340.296875 137.03125 349.285156 139.59375 353.324219 137.046875 C 357.164062 134.625 353.6875 130.136719 355.6875 127.246094 C 358.117188 123.738281 364.136719 126.058594 367.121094 123.953125 C 373.734375 119.289062 354.785156 117.1875 353.78125 117.085938 C 341.855469 115.898438 330.054688 118.617188 318.257812 117.476562 C 313.9375 117.097656 309.605469 116.964844 305.269531 117.082031 Z M 305.269531 117.082031 " fill-opacity="1" fill-rule="nonzero"/></svg>