<svg xmlns="http://www.w3.org/2000/svg" xmlns:xlink="http://www.w3.org/1999/xlink" width="500" zoomAndPan="magnify" viewBox="0 0 375 374.999991" height="500" preserveAspectRatio="xMidYMid meet" version="1.0"><defs><g/><clipPath id="32433b10ca"><path d="M 234.746094 76.46875 L 371.597656 76.46875 L 371.597656 298.53125 L 234.746094 298.53125 Z M 234.746094 76.46875 " clip-rule="nonzero"/></clipPath></defs><rect x="-37.5" width="450" fill="#ffffff" y="-37.499999" height="449.999989" fill-opacity="1"/><rect x="-37.5" width="450" fill="#ffffff" y="-37.499999" height="449.999989" fill-opacity="1"/><g clip-path="url(#32433b10ca)"><path fill="#ff2e7b" d="M 234.746094 76.46875 L 371.597656 76.46875 L 371.597656 298.3125 L 234.746094 298.3125 Z M 234.746094 76.46875 " fill-opacity="1" fill-rule="nonzero"/></g><g fill="#ffffff" fill-opacity="1"><g transform="translate(265.465475, 233.249985)"><g><path d="M 100.703125 -22.21875 C 101.316406 -22.300781 101.8125 -22.1875 102.1875 -21.875 C 102.5625 -21.570312 102.65625 -21.195312 102.46875 -20.75 C 99.882812 -14.03125 96.910156 -7.5 93.546875 -1.15625 C 90.191406 5.1875 86.234375 11.3125 81.671875 17.21875 C 78.285156 21.644531 74.5625 25.859375 70.5 29.859375 C 67.53125 32.710938 64.289062 35.242188 60.78125 37.453125 C 57.269531 39.671875 53.425781 41.453125 49.25 42.796875 C 33.914062 47.660156 19.9375 45.503906 7.3125 36.328125 C 4.113281 34.003906 1.328125 31.34375 -1.046875 28.34375 C -3.429688 25.351562 -5.476562 22.160156 -7.1875 18.765625 C -9.894531 13.421875 -12.019531 7.945312 -13.5625 2.34375 C -15.101562 -3.25 -16.15625 -8.972656 -16.71875 -14.828125 C -16.90625 -17.535156 -17.03125 -20.375 -17.09375 -23.34375 C -17.144531 -24.832031 -17.203125 -26.375 -17.265625 -27.96875 C -16.898438 -41.882812 -14.835938 -55.585938 -11.078125 -69.078125 C -7.328125 -82.566406 -1.5625 -95.65625 6.21875 -108.34375 C 10.75 -115.726562 16.222656 -122.554688 22.640625 -128.828125 C 27.929688 -134.066406 34.160156 -138.253906 41.328125 -141.390625 C 47.234375 -143.929688 53.472656 -144.976562 60.046875 -144.53125 C 62.085938 -144.425781 64.035156 -143.992188 65.890625 -143.234375 C 74.367188 -139.796875 80.148438 -134.140625 83.234375 -126.265625 C 83.367188 -125.960938 83.460938 -125.613281 83.515625 -125.21875 C 83.710938 -124.070312 83.15625 -123.25 81.84375 -122.75 C 80.550781 -122.125 79.515625 -122.304688 78.734375 -123.296875 C 78.035156 -124.210938 77.445312 -125.160156 76.96875 -126.140625 C 76.914062 -126.285156 76.816406 -126.441406 76.671875 -126.609375 C 74.515625 -130.304688 71.617188 -133.484375 67.984375 -136.140625 C 64.898438 -138.347656 61.632812 -139.695312 58.1875 -140.1875 C 54.75 -140.675781 51.1875 -140.53125 47.5 -139.75 C 44.976562 -139.132812 42.640625 -138.273438 40.484375 -137.171875 C 38.328125 -136.066406 36.253906 -134.800781 34.265625 -133.375 C 28.609375 -129.0625 23.65625 -124.132812 19.40625 -118.59375 C 9.851562 -106.269531 2.738281 -92.925781 -1.9375 -78.5625 C -5.125 -69.21875 -7.507812 -59.742188 -9.09375 -50.140625 C -10.675781 -40.535156 -11.1875 -30.832031 -10.625 -21.03125 C -10.257812 -13.894531 -9.179688 -6.914062 -7.390625 -0.09375 C -5.597656 6.71875 -2.851562 13.3125 0.84375 19.6875 C 4.894531 26.71875 10.742188 32.265625 18.390625 36.328125 C 25.222656 39.847656 32.148438 41.378906 39.171875 40.921875 C 46.203125 40.460938 52.671875 38.203125 58.578125 34.140625 C 62.390625 31.484375 65.804688 28.457031 68.828125 25.0625 C 73.023438 20.445312 76.832031 15.625 80.25 10.59375 C 83.664062 5.570312 86.882812 0.414062 89.90625 -4.875 C 91.75 -8.3125 93.523438 -11.78125 95.234375 -15.28125 C 95.847656 -16.519531 96.46875 -17.753906 97.09375 -18.984375 C 97.476562 -19.796875 97.929688 -20.507812 98.453125 -21.125 C 98.972656 -21.738281 99.722656 -22.101562 100.703125 -22.21875 Z M 100.703125 -22.21875 "/></g></g></g><g fill="#ff2e7b" fill-opacity="1"><g transform="translate(3.402955, 287.39377)"><g><path d="M 40.015625 -106.03125 C 41.359375 -106.34375 41.75 -107.113281 41.1875 -108.34375 C 39.039062 -112.957031 35.472656 -116.007812 30.484375 -117.5 C 26.785156 -118.414062 22.703125 -118.101562 18.234375 -116.5625 C 13.773438 -115.03125 10.21875 -112.65625 7.5625 -109.4375 C 7.394531 -109.175781 7.238281 -108.894531 7.09375 -108.59375 C 7.09375 -108.59375 7.066406 -108.59375 7.015625 -108.59375 C 6.035156 -106.632812 6.625 -105.21875 8.78125 -104.34375 C 10.257812 -103.875 11.707031 -103.585938 13.125 -103.484375 C 14.539062 -103.390625 15.738281 -103.34375 16.71875 -103.34375 C 21.832031 -103.457031 26.476562 -103.863281 30.65625 -104.5625 C 31.519531 -104.675781 32.359375 -104.785156 33.171875 -104.890625 C 35.441406 -105.148438 37.722656 -105.53125 40.015625 -106.03125 Z M 68.359375 -23.046875 C 75.554688 -23.859375 82.765625 -24.476562 89.984375 -24.90625 C 91.773438 -24.957031 93.554688 -24.925781 95.328125 -24.8125 C 95.515625 -24.757812 95.710938 -24.609375 95.921875 -24.359375 C 96.140625 -24.109375 96.289062 -23.851562 96.375 -23.59375 C 96.375 -23.425781 96.3125 -23.21875 96.1875 -22.96875 C 96.0625 -22.71875 95.898438 -22.507812 95.703125 -22.34375 C 95.390625 -22.09375 95.035156 -21.914062 94.640625 -21.8125 C 94.253906 -21.71875 93.835938 -21.671875 93.390625 -21.671875 L 92.921875 -21.671875 C 92.503906 -21.554688 92.070312 -21.5 91.625 -21.5 L 91.453125 -21.5 C 87.398438 -21.25 83.34375 -20.914062 79.28125 -20.5 C 77.738281 -20.351562 76.195312 -20.195312 74.65625 -20.03125 C 68.5 -19.21875 62.34375 -18.320312 56.1875 -17.34375 C 54.644531 -17.144531 53.515625 -16.925781 52.796875 -16.6875 C 52.085938 -16.445312 51.640625 -15.984375 51.453125 -15.296875 C 51.273438 -14.617188 51.117188 -13.535156 50.984375 -12.046875 L 50.984375 -11.890625 C 49.441406 6.023438 47.410156 23.859375 44.890625 41.609375 C 44.640625 43.265625 44.429688 44.890625 44.265625 46.484375 L 43.5 51.6875 C 43.445312 52.300781 43.328125 52.894531 43.140625 53.46875 C 42.960938 54.050781 42.648438 54.59375 42.203125 55.09375 C 41.890625 55.40625 41.550781 55.613281 41.1875 55.71875 C 40.832031 55.914062 40.398438 55.914062 39.890625 55.71875 C 39.773438 55.800781 39.625 55.875 39.4375 55.9375 C 39.007812 56.101562 38.546875 56.070312 38.046875 55.84375 C 37.679688 55.65625 37.457031 55.390625 37.375 55.046875 C 37.289062 54.710938 37.273438 54.363281 37.328125 54 C 37.492188 52.457031 37.675781 50.945312 37.875 49.46875 L 38.640625 43.921875 C 39.722656 34.992188 40.664062 26.0625 41.46875 17.125 C 42.269531 8.195312 42.976562 -0.757812 43.59375 -9.75 C 43.675781 -10.050781 43.71875 -10.359375 43.71875 -10.671875 C 43.820312 -11.367188 43.875 -12.109375 43.875 -12.890625 C 43.820312 -13.566406 43.546875 -14.3125 43.046875 -15.125 C 42.171875 -14.925781 41.273438 -14.769531 40.359375 -14.65625 C 36.972656 -14.09375 33.582031 -13.476562 30.1875 -12.8125 C 27.3125 -12.25 24.457031 -11.601562 21.625 -10.875 C 20.195312 -10.507812 18.742188 -10.132812 17.265625 -9.75 C 16.785156 -9.632812 16.320312 -9.601562 15.875 -9.65625 L 15.53125 -9.578125 C 15.03125 -9.460938 14.53125 -9.429688 14.03125 -9.484375 C 13.863281 -9.484375 13.703125 -9.546875 13.546875 -9.671875 C 13.390625 -9.804688 13.285156 -9.925781 13.234375 -10.03125 C 13.148438 -10.144531 13.09375 -10.300781 13.0625 -10.5 C 13.03125 -10.695312 13.046875 -10.878906 13.109375 -11.046875 C 13.296875 -11.609375 13.609375 -12.023438 14.046875 -12.296875 C 14.484375 -12.578125 14.9375 -12.800781 15.40625 -12.96875 C 19.1875 -14.59375 23.109375 -15.769531 27.171875 -16.5 C 28.878906 -16.8125 30.597656 -17.148438 32.328125 -17.515625 L 41.1875 -19.1875 C 42.625 -19.4375 43.507812 -19.742188 43.84375 -20.109375 C 44.175781 -20.472656 44.34375 -21.273438 44.34375 -22.515625 C 44.539062 -27.242188 44.75 -31.988281 44.96875 -36.75 C 45.363281 -43.6875 45.664062 -50.65625 45.875 -57.65625 C 46.082031 -64.65625 46.085938 -71.664062 45.890625 -78.6875 C 45.722656 -83.164062 45.488281 -87.660156 45.1875 -92.171875 C 45.125 -92.648438 45.09375 -93.140625 45.09375 -93.640625 C 44.957031 -95.128906 44.734375 -96.570312 44.421875 -97.96875 C 44.054688 -100.207031 43.597656 -101.535156 43.046875 -101.953125 C 42.734375 -102.066406 42.296875 -102.125 41.734375 -102.125 L 40.65625 -101.953125 C 36.53125 -101.222656 32.398438 -100.609375 28.265625 -100.109375 C 27.285156 -99.910156 26.304688 -99.785156 25.328125 -99.734375 C 21.566406 -99.316406 17.769531 -99.109375 13.9375 -99.109375 C 11.226562 -99.046875 8.582031 -99.378906 6 -100.109375 C 4.96875 -100.421875 3.988281 -100.851562 3.0625 -101.40625 C 1.019531 -102.75 0.40625 -104.65625 1.21875 -107.125 C 1.832031 -108.96875 2.835938 -110.578125 4.234375 -111.953125 C 7.679688 -115.203125 11.476562 -117.75 15.625 -119.59375 C 19.0625 -121.070312 22.785156 -121.992188 26.796875 -122.359375 C 28.078125 -122.503906 29.40625 -122.601562 30.78125 -122.65625 C 38.59375 -122.769531 44.5 -119.3125 48.5 -112.28125 L 49.046875 -111.203125 C 49.179688 -110.890625 49.335938 -110.609375 49.515625 -110.359375 C 50.066406 -109.179688 50.554688 -108.507812 50.984375 -108.34375 C 51.066406 -108.28125 51.132812 -108.25 51.1875 -108.25 C 51.238281 -108.3125 51.320312 -108.34375 51.4375 -108.34375 C 53.175781 -108.707031 54.910156 -109.097656 56.640625 -109.515625 C 63.335938 -111.054688 70.046875 -112.722656 76.765625 -114.515625 C 85.390625 -116.921875 94.039062 -119.382812 102.71875 -121.90625 L 117.5 -126.140625 C 119.539062 -126.703125 121.609375 -127.140625 123.703125 -127.453125 C 123.878906 -127.503906 124.035156 -127.503906 124.171875 -127.453125 L 125.46875 -127.65625 C 125.695312 -127.707031 125.953125 -127.65625 126.234375 -127.5 C 126.515625 -127.351562 126.722656 -127.179688 126.859375 -126.984375 C 127.078125 -126.617188 127.128906 -126.28125 127.015625 -125.96875 C 126.910156 -125.664062 126.703125 -125.414062 126.390625 -125.21875 C 125.328125 -124.601562 124.207031 -124.085938 123.03125 -123.671875 C 119.957031 -122.742188 116.921875 -121.847656 113.921875 -120.984375 C 108.179688 -119.390625 102.441406 -117.722656 96.703125 -115.984375 C 86.378906 -112.847656 75.953125 -109.960938 65.421875 -107.328125 C 64.410156 -107.078125 63.445312 -106.851562 62.53125 -106.65625 L 54.046875 -104.640625 C 53.117188 -104.390625 52.53125 -104.097656 52.28125 -103.765625 C 52.03125 -103.429688 51.972656 -102.859375 52.109375 -102.046875 C 53.335938 -94.796875 54.015625 -87.5 54.140625 -80.15625 C 54.273438 -72.820312 54.1875 -65.519531 53.875 -58.25 C 53.476562 -46.789062 52.820312 -35.394531 51.90625 -24.0625 C 51.90625 -23.53125 51.945312 -23.015625 52.03125 -22.515625 C 52.082031 -21.703125 52.445312 -21.265625 53.125 -21.203125 C 53.320312 -21.203125 53.503906 -21.234375 53.671875 -21.296875 L 54.796875 -21.5 C 59.335938 -22.113281 63.859375 -22.628906 68.359375 -23.046875 Z M 68.359375 -23.046875 "/></g></g></g><g fill="#ff2e7b" fill-opacity="1"><g transform="translate(120.064201, 179.106199)"><g><path d="M 40.015625 -106.03125 C 41.359375 -106.34375 41.75 -107.113281 41.1875 -108.34375 C 39.039062 -112.957031 35.472656 -116.007812 30.484375 -117.5 C 26.785156 -118.414062 22.703125 -118.101562 18.234375 -116.5625 C 13.773438 -115.03125 10.21875 -112.65625 7.5625 -109.4375 C 7.394531 -109.175781 7.238281 -108.894531 7.09375 -108.59375 C 7.09375 -108.59375 7.066406 -108.59375 7.015625 -108.59375 C 6.035156 -106.632812 6.625 -105.21875 8.78125 -104.34375 C 10.257812 -103.875 11.707031 -103.585938 13.125 -103.484375 C 14.539062 -103.390625 15.738281 -103.34375 16.71875 -103.34375 C 21.832031 -103.457031 26.476562 -103.863281 30.65625 -104.5625 C 31.519531 -104.675781 32.359375 -104.785156 33.171875 -104.890625 C 35.441406 -105.148438 37.722656 -105.53125 40.015625 -106.03125 Z M 68.359375 -23.046875 C 75.554688 -23.859375 82.765625 -24.476562 89.984375 -24.90625 C 91.773438 -24.957031 93.554688 -24.925781 95.328125 -24.8125 C 95.515625 -24.757812 95.710938 -24.609375 95.921875 -24.359375 C 96.140625 -24.109375 96.289062 -23.851562 96.375 -23.59375 C 96.375 -23.425781 96.3125 -23.21875 96.1875 -22.96875 C 96.0625 -22.71875 95.898438 -22.507812 95.703125 -22.34375 C 95.390625 -22.09375 95.035156 -21.914062 94.640625 -21.8125 C 94.253906 -21.71875 93.835938 -21.671875 93.390625 -21.671875 L 92.921875 -21.671875 C 92.503906 -21.554688 92.070312 -21.5 91.625 -21.5 L 91.453125 -21.5 C 87.398438 -21.25 83.34375 -20.914062 79.28125 -20.5 C 77.738281 -20.351562 76.195312 -20.195312 74.65625 -20.03125 C 68.5 -19.21875 62.34375 -18.320312 56.1875 -17.34375 C 54.644531 -17.144531 53.515625 -16.925781 52.796875 -16.6875 C 52.085938 -16.445312 51.640625 -15.984375 51.453125 -15.296875 C 51.273438 -14.617188 51.117188 -13.535156 50.984375 -12.046875 L 50.984375 -11.890625 C 49.441406 6.023438 47.410156 23.859375 44.890625 41.609375 C 44.640625 43.265625 44.429688 44.890625 44.265625 46.484375 L 43.5 51.6875 C 43.445312 52.300781 43.328125 52.894531 43.140625 53.46875 C 42.960938 54.050781 42.648438 54.59375 42.203125 55.09375 C 41.890625 55.40625 41.550781 55.613281 41.1875 55.71875 C 40.832031 55.914062 40.398438 55.914062 39.890625 55.71875 C 39.773438 55.800781 39.625 55.875 39.4375 55.9375 C 39.007812 56.101562 38.546875 56.070312 38.046875 55.84375 C 37.679688 55.65625 37.457031 55.390625 37.375 55.046875 C 37.289062 54.710938 37.273438 54.363281 37.328125 54 C 37.492188 52.457031 37.675781 50.945312 37.875 49.46875 L 38.640625 43.921875 C 39.722656 34.992188 40.664062 26.0625 41.46875 17.125 C 42.269531 8.195312 42.976562 -0.757812 43.59375 -9.75 C 43.675781 -10.050781 43.71875 -10.359375 43.71875 -10.671875 C 43.820312 -11.367188 43.875 -12.109375 43.875 -12.890625 C 43.820312 -13.566406 43.546875 -14.3125 43.046875 -15.125 C 42.171875 -14.925781 41.273438 -14.769531 40.359375 -14.65625 C 36.972656 -14.09375 33.582031 -13.476562 30.1875 -12.8125 C 27.3125 -12.25 24.457031 -11.601562 21.625 -10.875 C 20.195312 -10.507812 18.742188 -10.132812 17.265625 -9.75 C 16.785156 -9.632812 16.320312 -9.601562 15.875 -9.65625 L 15.53125 -9.578125 C 15.03125 -9.460938 14.53125 -9.429688 14.03125 -9.484375 C 13.863281 -9.484375 13.703125 -9.546875 13.546875 -9.671875 C 13.390625 -9.804688 13.285156 -9.925781 13.234375 -10.03125 C 13.148438 -10.144531 13.09375 -10.300781 13.0625 -10.5 C 13.03125 -10.695312 13.046875 -10.878906 13.109375 -11.046875 C 13.296875 -11.609375 13.609375 -12.023438 14.046875 -12.296875 C 14.484375 -12.578125 14.9375 -12.800781 15.40625 -12.96875 C 19.1875 -14.59375 23.109375 -15.769531 27.171875 -16.5 C 28.878906 -16.8125 30.597656 -17.148438 32.328125 -17.515625 L 41.1875 -19.1875 C 42.625 -19.4375 43.507812 -19.742188 43.84375 -20.109375 C 44.175781 -20.472656 44.34375 -21.273438 44.34375 -22.515625 C 44.539062 -27.242188 44.75 -31.988281 44.96875 -36.75 C 45.363281 -43.6875 45.664062 -50.65625 45.875 -57.65625 C 46.082031 -64.65625 46.085938 -71.664062 45.890625 -78.6875 C 45.722656 -83.164062 45.488281 -87.660156 45.1875 -92.171875 C 45.125 -92.648438 45.09375 -93.140625 45.09375 -93.640625 C 44.957031 -95.128906 44.734375 -96.570312 44.421875 -97.96875 C 44.054688 -100.207031 43.597656 -101.535156 43.046875 -101.953125 C 42.734375 -102.066406 42.296875 -102.125 41.734375 -102.125 L 40.65625 -101.953125 C 36.53125 -101.222656 32.398438 -100.609375 28.265625 -100.109375 C 27.285156 -99.910156 26.304688 -99.785156 25.328125 -99.734375 C 21.566406 -99.316406 17.769531 -99.109375 13.9375 -99.109375 C 11.226562 -99.046875 8.582031 -99.378906 6 -100.109375 C 4.96875 -100.421875 3.988281 -100.851562 3.0625 -101.40625 C 1.019531 -102.75 0.40625 -104.65625 1.21875 -107.125 C 1.832031 -108.96875 2.835938 -110.578125 4.234375 -111.953125 C 7.679688 -115.203125 11.476562 -117.75 15.625 -119.59375 C 19.0625 -121.070312 22.785156 -121.992188 26.796875 -122.359375 C 28.078125 -122.503906 29.40625 -122.601562 30.78125 -122.65625 C 38.59375 -122.769531 44.5 -119.3125 48.5 -112.28125 L 49.046875 -111.203125 C 49.179688 -110.890625 49.335938 -110.609375 49.515625 -110.359375 C 50.066406 -109.179688 50.554688 -108.507812 50.984375 -108.34375 C 51.066406 -108.28125 51.132812 -108.25 51.1875 -108.25 C 51.238281 -108.3125 51.320312 -108.34375 51.4375 -108.34375 C 53.175781 -108.707031 54.910156 -109.097656 56.640625 -109.515625 C 63.335938 -111.054688 70.046875 -112.722656 76.765625 -114.515625 C 85.390625 -116.921875 94.039062 -119.382812 102.71875 -121.90625 L 117.5 -126.140625 C 119.539062 -126.703125 121.609375 -127.140625 123.703125 -127.453125 C 123.878906 -127.503906 124.035156 -127.503906 124.171875 -127.453125 L 125.46875 -127.65625 C 125.695312 -127.707031 125.953125 -127.65625 126.234375 -127.5 C 126.515625 -127.351562 126.722656 -127.179688 126.859375 -126.984375 C 127.078125 -126.617188 127.128906 -126.28125 127.015625 -125.96875 C 126.910156 -125.664062 126.703125 -125.414062 126.390625 -125.21875 C 125.328125 -124.601562 124.207031 -124.085938 123.03125 -123.671875 C 119.957031 -122.742188 116.921875 -121.847656 113.921875 -120.984375 C 108.179688 -119.390625 102.441406 -117.722656 96.703125 -115.984375 C 86.378906 -112.847656 75.953125 -109.960938 65.421875 -107.328125 C 64.410156 -107.078125 63.445312 -106.851562 62.53125 -106.65625 L 54.046875 -104.640625 C 53.117188 -104.390625 52.53125 -104.097656 52.28125 -103.765625 C 52.03125 -103.429688 51.972656 -102.859375 52.109375 -102.046875 C 53.335938 -94.796875 54.015625 -87.5 54.140625 -80.15625 C 54.273438 -72.820312 54.1875 -65.519531 53.875 -58.25 C 53.476562 -46.789062 52.820312 -35.394531 51.90625 -24.0625 C 51.90625 -23.53125 51.945312 -23.015625 52.03125 -22.515625 C 52.082031 -21.703125 52.445312 -21.265625 53.125 -21.203125 C 53.320312 -21.203125 53.503906 -21.234375 53.671875 -21.296875 L 54.796875 -21.5 C 59.335938 -22.113281 63.859375 -22.628906 68.359375 -23.046875 Z M 68.359375 -23.046875 "/></g></g></g></svg>